<svg width="83" height="83" viewBox="0 0 83 83" fill="none" xmlns="http://www.w3.org/2000/svg">
<path d="M41.5 0C18.5777 0 0 18.5777 0 41.5C0 64.4223 18.5777 83 41.5 83C64.4223 83 83 64.4223 83 41.5C83 18.5777 64.4223 0 41.5 0ZM56.2682 45.4879L37.123 56.5437C34.9184 57.8244 32.0977 57.0625 30.817 54.8578C30.4117 54.1607 30.201 53.3664 30.201 52.5559V30.4441C30.201 27.899 32.2598 25.8402 34.8211 25.8402C35.6316 25.8402 36.426 26.051 37.123 26.4562L56.2682 37.5121C58.4729 38.7928 59.2348 41.5973 57.9541 43.802C57.5488 44.499 56.9652 45.0826 56.2682 45.4879Z" fill="#C90000"/>
</svg>
