<svg width="31" height="31" viewBox="0 0 31 31" fill="none" xmlns="http://www.w3.org/2000/svg">
<path d="M30.7058 16.7405C31.098 15.9637 31.098 15.0363 30.7058 14.2594L30.2997 13.455C30.2114 13.2808 30.1801 13.0832 30.2102 12.8902L30.3479 11.9996C30.4808 11.1397 30.1942 10.2576 29.5811 9.64L28.9464 9.00045C28.8085 8.86205 28.7176 8.68376 28.6867 8.49084L28.5425 7.60134C28.4047 6.75192 27.8701 6.0087 27.1098 5.60755L26.3288 5.14693C26.3137 5.13803 26.2984 5.12955 26.2828 5.12156C26.1089 5.03257 25.9674 4.8911 25.8785 4.71719L25.4663 3.91585C25.0778 3.16016 24.2855 2.60133 23.3986 2.45746L22.5091 2.31322C22.3162 2.28229 22.1379 2.19147 21.9995 2.05364L21.36 1.41875C20.7424 0.805726 19.8605 0.519315 19.0004 0.652045L18.1098 0.789679C17.9168 0.819901 17.7192 0.788611 17.545 0.700244L16.7405 0.294123C15.9638 -0.0980107 15.0363 -0.0980713 14.2595 0.294123L13.455 0.700244C13.2808 0.78852 13.0832 0.819826 12.8902 0.78974L11.9997 0.652105C11.1395 0.519073 10.2576 0.805786 9.64003 1.41881L9.00043 2.05358C8.86204 2.19146 8.68377 2.2823 8.49088 2.31322L7.60131 2.45746C6.71447 2.60133 5.92215 3.1601 5.53359 3.91585L5.12154 4.71719C5.03251 4.89109 4.89102 5.03256 4.71711 5.12156L3.91571 5.53367C3.16002 5.92224 2.60119 6.71456 2.45738 7.6014L2.31308 8.49097C2.28217 8.68386 2.19133 8.86213 2.05343 9.00051L1.41873 9.64006C0.805703 10.2576 0.519111 11.1397 0.652022 11.9996L0.789717 12.8902C0.819931 13.0832 0.788619 13.2808 0.700221 13.455L0.2941 14.2594C-0.0980334 15.0362 -0.0980334 15.9637 0.2941 16.7405L0.700221 17.5449C0.788569 17.7191 0.819878 17.9167 0.789717 18.1097L0.652022 19.0003C0.519111 19.8603 0.805763 20.7424 1.41873 21.3599L2.05356 21.9995C2.19146 22.1379 2.28231 22.3162 2.3132 22.5091L2.4575 23.3986C2.60131 24.2855 3.16014 25.0778 3.91583 25.4664L4.71717 25.8784C4.89108 25.9674 5.03258 26.1089 5.1216 26.2829L5.53365 27.0843C5.92227 27.8399 6.71459 28.3988 7.60144 28.5426L8.49094 28.6869C8.68382 28.7178 8.86208 28.8086 9.00049 28.9465L9.64009 29.5814C10.2578 30.1944 11.1398 30.4808 11.9997 30.348L12.8903 30.2103C13.0833 30.1801 13.2808 30.2114 13.455 30.2998L14.2595 30.7059C14.6443 30.8997 15.0692 31.0004 15.5 31C15.9308 31.0004 16.3557 30.8997 16.7405 30.7059L17.545 30.2998C17.7192 30.2115 17.9168 30.1802 18.1098 30.2103L19.0003 30.3479C19.8603 30.4808 20.7423 30.1943 21.36 29.5812L21.9995 28.9464C22.1379 28.8085 22.3162 28.7177 22.5091 28.6868L23.3986 28.5425C24.248 28.4047 24.9913 27.8701 25.3924 27.1098L25.853 26.3288C25.8619 26.3137 25.8704 26.2984 25.8784 26.2827C25.9674 26.1089 26.1089 25.9674 26.2828 25.8784L27.0841 25.4663C27.858 25.0684 28.4032 24.3181 28.5425 23.4591L28.6867 22.5696C28.7177 22.3767 28.8085 22.1984 28.9464 22.06C29.1635 21.8215 29.3804 21.5828 29.5971 21.3438C30.1991 20.727 30.4797 19.8528 30.3479 19.0003L30.2102 18.1098C30.18 17.9168 30.2113 17.7192 30.2997 17.5449L30.7058 16.7405Z" fill="#8F8065"/>
<path d="M15.4989 4.53906C9.48185 4.53906 4.53906 9.48318 4.53906 15.4989C4.53906 21.516 9.48318 26.4588 15.4989 26.4588C21.516 26.4588 26.4588 21.5147 26.4588 15.4989C26.4588 9.48185 21.5147 4.53906 15.4989 4.53906ZM21.8298 12.9944L20.0132 20.2606C19.9641 20.4571 19.8507 20.6316 19.691 20.7562C19.5314 20.8809 19.3346 20.9486 19.1321 20.9486H11.8658C11.6633 20.9486 11.4665 20.8809 11.3069 20.7562C11.1472 20.6316 11.0338 20.4571 10.9847 20.2606L9.16813 12.9944C9.11636 12.7871 9.13935 12.5681 9.23307 12.376C9.32679 12.184 9.48524 12.0311 9.68053 11.9443C9.87583 11.8575 10.0955 11.8424 10.3008 11.9015C10.5062 11.9607 10.6841 12.0903 10.8033 12.2677C11.0519 12.6331 11.951 13.6824 12.7741 13.6824C12.9245 13.6824 13.3905 13.3323 13.8706 12.25C14.3013 11.279 14.5907 10.0297 14.5907 9.141C14.5907 8.63939 14.9973 8.23273 15.4989 8.23273C16.0006 8.23273 16.4072 8.63939 16.4072 9.141C16.4072 10.0297 16.6966 11.279 17.1273 12.25C17.6074 13.3323 18.0734 13.6824 18.2238 13.6824C19.0713 13.6824 19.9939 12.5665 20.1946 12.2677C20.3138 12.0903 20.4917 11.9606 20.6971 11.9014C20.9024 11.8422 21.1221 11.8573 21.3174 11.9441C21.5128 12.0309 21.6712 12.1838 21.7649 12.3759C21.8586 12.568 21.8816 12.787 21.8298 12.9944Z" fill="url(#paint0_linear_1263_7300)"/>
<defs>
<linearGradient id="paint0_linear_1263_7300" x1="15.4989" y1="26.4588" x2="15.4989" y2="4.53906" gradientUnits="userSpaceOnUse">
<stop stop-color="#FFE59A"/>
<stop offset="1" stop-color="#FFFFD5"/>
</linearGradient>
</defs>
</svg>
